<svg xmlns="http://www.w3.org/2000/svg" width="960" height="960"><g transform="translate(480,480)"><path class="link" d="M0,0C-3.4121206682335523,49.88343845952692 13.489838557851208,-48.14586436738996 26.979677115702415,-96.29172873477992"></path><path class="link" d="M0,0C-3.4121206682335523,49.88343845952692 28.83401610574332,-40.84849465052205 57.66803221148664,-81.6969893010441"></path><path class="link" d="M0,0C-3.4121206682335523,49.88343845952692 45.86056507527259,-19.920054492312048 91.72113015054518,-39.840108984624095"></path><path class="link" d="M0,0C-3.4121206682335523,49.88343845952692 44.39426092011875,23.003251886557592 88.7885218402375,46.006503773115185"></path><path class="link" d="M0,0C-3.4121206682335523,49.88343845952692 3.41212066823353,49.88343845952692 6.82424133646706,99.76687691905384"></path><path class="link" d="M0,0C-3.4121206682335523,49.88343845952692 -44.39426092011873,23.00325188655761 -88.78852184023746,46.00650377311522"></path><path class="link" d="M0,0C-3.4121206682335523,49.88343845952692 -44.394260920118754,-23.003251886557567 -88.78852184023751,-46.006503773115135"></path><path class="link" d="M0,0C-3.4121206682335523,49.88343845952692 -19.920054492312023,-45.860565075272596 -39.840108984624045,-91.72113015054519"></path><path class="link" d="M0,0C-3.4121206682335523,49.88343845952692 -6.808332454812308,-49.534297301816466 -13.616664909624616,-99.06859460363293"></path><path class="link" d="M26.979677115702415,-96.29172873477992C40.46951567355362,-144.4375931021699 40.46951567355362,-144.4375931021699 53.95935423140483,-192.58345746955985"></path><path class="link" d="M57.66803221148664,-81.6969893010441C86.50204831722996,-122.54548395156615 77.93759250531502,-128.16291068197327 103.91679000708669,-170.8838809092977"></path><path class="link" d="M57.66803221148664,-81.6969893010441C86.50204831722996,-122.54548395156615 94.6631916489078,-116.3566936056628 126.21758886521039,-155.14225814088374"></path><path class="link" d="M91.72113015054518,-39.840108984624095C137.58169522581775,-59.76016347693614 122.54548395156615,-86.50204831722996 163.3939786020882,-115.33606442297328"></path><path class="link" d="M91.72113015054518,-39.840108984624095C137.58169522581775,-59.76016347693614 133.18278276035625,-69.00975565967278 177.577043680475,-92.01300754623037"></path><path class="link" d="M91.72113015054518,-39.840108984624095C137.58169522581775,-59.76016347693614 141.33913831782291,-50.231941825647844 188.4521844237639,-66.97592243419712"></path><path class="link" d="M91.72113015054518,-39.840108984624095C137.58169522581775,-59.76016347693614 146.86261315234833,-30.518401957895055 195.81681753646444,-40.69120261052674"></path><path class="link" d="M88.7885218402375,46.006503773115185C133.18278276035625,69.00975565967278 149.65031537858076,10.236362004700634 199.53375383810769,13.648482672934179"></path><path class="link" d="M88.7885218402375,46.006503773115185C133.18278276035625,69.00975565967278 146.86261315234833,30.518401957895033 195.81681753646444,40.69120261052671"></path><path class="link" d="M88.7885218402375,46.006503773115185C133.18278276035625,69.00975565967278 141.33913831782291,50.231941825647844 188.4521844237639,66.97592243419712"></path><path class="link" d="M88.7885218402375,46.006503773115185C133.18278276035625,69.00975565967278 133.18278276035625,69.00975565967278 177.577043680475,92.01300754623037"></path><path class="link" d="M88.7885218402375,46.006503773115185C133.18278276035625,69.00975565967278 122.54548395156615,86.50204831722996 163.3939786020882,115.33606442297328"></path><path class="link" d="M88.7885218402375,46.006503773115185C133.18278276035625,69.00975565967278 109.62539464171857,102.38297148279807 146.16719285562476,136.51062864373077"></path><path class="link" d="M88.7885218402375,46.006503773115185C133.18278276035625,69.00975565967278 94.66319164890774,116.35669360566285 126.21758886521033,155.1422581408838"></path><path class="link" d="M6.82424133646706,99.76687691905384C10.23636200470059,149.65031537858076 59.76016347693618,137.58169522581775 79.68021796924823,183.44226030109033"></path><path class="link" d="M6.82424133646706,99.76687691905384C10.23636200470059,149.65031537858076 40.46951567355362,144.4375931021699 53.95935423140483,192.58345746955985"></path><path class="link" d="M6.82424133646706,99.76687691905384C10.23636200470059,149.65031537858076 20.42499736443701,148.60289190544938 27.233329819249345,198.13718920726583"></path><path class="link" d="M6.82424133646706,99.76687691905384C10.23636200470059,149.65031537858076 0,150 0,200"></path><path class="link" d="M6.82424133646706,99.76687691905384C10.23636200470059,149.65031537858076 -20.42499736443694,148.60289190544938 -27.233329819249253,198.13718920726586"></path><path class="link" d="M6.82424133646706,99.76687691905384C10.23636200470059,149.65031537858076 -40.46951567355361,144.4375931021699 -53.95935423140481,192.58345746955985"></path><path class="link" d="M-88.78852184023746,46.00650377311522C-133.1827827603562,69.00975565967283 -77.93759250531504,128.16291068197327 -103.91679000708672,170.8838809092977"></path><path class="link" d="M-88.78852184023746,46.00650377311522C-133.1827827603562,69.00975565967283 -94.66319164890774,116.35669360566285 -126.21758886521033,155.1422581408838"></path><path class="link" d="M-88.78852184023746,46.00650377311522C-133.1827827603562,69.00975565967283 -109.62539464171857,102.3829714827981 -146.16719285562476,136.5106286437308"></path><path class="link" d="M-88.78852184023746,46.00650377311522C-133.1827827603562,69.00975565967283 -122.54548395156615,86.50204831722996 -163.3939786020882,115.33606442297328"></path><path class="link" d="M-88.78852184023746,46.00650377311522C-133.1827827603562,69.00975565967283 -133.1827827603562,69.00975565967283 -177.57704368047493,92.01300754623044"></path><path class="link" d="M-88.78852184023746,46.00650377311522C-133.1827827603562,69.00975565967283 -141.33913831782291,50.23194182564787 -188.4521844237639,66.97592243419717"></path><path class="link" d="M-88.78852184023746,46.00650377311522C-133.1827827603562,69.00975565967283 -146.8626131523483,30.51840195789514 -195.8168175364644,40.69120261052686"></path><path class="link" d="M-88.78852184023746,46.00650377311522C-133.1827827603562,69.00975565967283 -149.65031537858076,10.23636200470068 -199.53375383810769,13.64848267293424"></path><path class="link" d="M-88.78852184023746,46.00650377311522C-133.1827827603562,69.00975565967283 -149.65031537858076,-10.236362004700647 -199.53375383810769,-13.648482672934195"></path><path class="link" d="M-88.78852184023751,-46.006503773115135C-133.18278276035628,-69.00975565967269 -141.33913831782291,-50.231941825647866 -188.4521844237639,-66.97592243419716"></path><path class="link" d="M-88.78852184023751,-46.006503773115135C-133.18278276035628,-69.00975565967269 -133.18278276035628,-69.00975565967269 -177.57704368047501,-92.01300754623027"></path><path class="link" d="M-88.78852184023751,-46.006503773115135C-133.18278276035628,-69.00975565967269 -122.54548395156615,-86.50204831722995 -163.3939786020882,-115.33606442297327"></path><path class="link" d="M-39.840108984624045,-91.72113015054519C-59.76016347693607,-137.58169522581778 -94.66319164890771,-116.35669360566287 -126.21758886521029,-155.14225814088383"></path><path class="link" d="M-39.840108984624045,-91.72113015054519C-59.76016347693607,-137.58169522581778 -77.93759250531502,-128.16291068197327 -103.91679000708669,-170.88388090929772"></path><path class="link" d="M-39.840108984624045,-91.72113015054519C-59.76016347693607,-137.58169522581778 -59.76016347693607,-137.58169522581778 -79.68021796924809,-183.44226030109039"></path><path class="link" d="M-39.840108984624045,-91.72113015054519C-59.76016347693607,-137.58169522581778 -40.469515673553765,-144.43759310216987 -53.95935423140502,-192.58345746955982"></path><path class="link" d="M-39.840108984624045,-91.72113015054519C-59.76016347693607,-137.58169522581778 -20.424997364436923,-148.60289190544938 -27.23332981924923,-198.13718920726586"></path><g class="node" transform="rotate(93.91304347826087)translate(0)"><circle r="4.5"></circle><text dy=".31em" text-anchor="end" transform="rotate(180)translate(-8)">MetabolomicsWorkflow</text></g><g class="node" transform="rotate(-74.34782608695652)translate(100)"><circle r="4.5"></circle><text dy=".31em" text-anchor="start" transform="translate(8)">Genomics</text></g><g class="node" transform="rotate(-74.34782608695652)translate(200)"><circle r="4.5"></circle><text dy=".31em" text-anchor="start" transform="translate(8)">Define the reaction network based on the genotype</text></g><g class="node" transform="rotate(-54.78260869565217)translate(100)"><circle r="4.5"></circle><text dy=".31em" text-anchor="start" transform="translate(8)">Phenomics</text></g><g class="node" transform="rotate(-58.69565217391305)translate(200)"><circle r="4.5"></circle><text dy=".31em" text-anchor="start" transform="translate(8)">Determine substrate input/output rates</text></g><g class="node" transform="rotate(-50.869565217391305)translate(200)"><circle r="4.5"></circle><text dy=".31em" text-anchor="start" transform="translate(8)">Determine growth rate</text></g><g class="node" transform="rotate(-23.47826086956522)translate(100)"><circle r="4.5"></circle><text dy=".31em" text-anchor="start" transform="translate(8)">Model reduction</text></g><g class="node" transform="rotate(-35.21739130434783)translate(200)"><circle r="4.5"></circle><text dy=".31em" text-anchor="start" transform="translate(8)">Retain core modules based on coverage of anticipated data</text></g><g class="node" transform="rotate(-27.391304347826086)translate(200)"><circle r="4.5"></circle><text dy=".31em" text-anchor="start" transform="translate(8)">Determine conditionally essential/optimal
reactions outside of core modules</text></g><g class="node" transform="rotate(-19.565217391304344)translate(200)"><circle r="4.5"></circle><text dy=".31em" text-anchor="start" transform="translate(8)">Lump conditionally essential/optimal reactions outside core modules</text></g><g class="node" transform="rotate(-11.73913043478261)translate(200)"><circle r="4.5"></circle><text dy=".31em" text-anchor="start" transform="translate(8)">Modify biomass composition accordingly</text></g><g class="node" transform="rotate(27.391304347826093)translate(100)"><circle r="4.5"></circle><text dy=".31em" text-anchor="start" transform="translate(8)">Fluxomics</text></g><g class="node" transform="rotate(3.9130434782608745)translate(200)"><circle r="4.5"></circle><text dy=".31em" text-anchor="start" transform="translate(8)">Determine atom mapping</text></g><g class="node" transform="rotate(11.73913043478261)translate(200)"><circle r="4.5"></circle><text dy=".31em" text-anchor="start" transform="translate(8)">Determine isotopomer distributions</text></g><g class="node" transform="rotate(19.565217391304344)translate(200)"><circle r="4.5"></circle><text dy=".31em" text-anchor="start" transform="translate(8)">Fit isotopomer distributions to model predictions</text></g><g class="node" transform="rotate(27.391304347826093)translate(200)"><circle r="4.5"></circle><text dy=".31em" text-anchor="start" transform="translate(8)">Check residuals of the fit</text></g><g class="node" transform="rotate(35.21739130434783)translate(200)"><circle r="4.5"></circle><text dy=".31em" text-anchor="start" transform="translate(8)">Determine flux confidence intervals</text></g><g class="node" transform="rotate(43.04347826086956)translate(200)"><circle r="4.5"></circle><text dy=".31em" text-anchor="start" transform="translate(8)">Determine statistically significant flux changes</text></g><g class="node" transform="rotate(50.86956521739131)translate(200)"><circle r="4.5"></circle><text dy=".31em" text-anchor="start" transform="translate(8)">Incorporate flux constraints</text></g><g class="node" transform="rotate(86.08695652173913)translate(100)"><circle r="4.5"></circle><text dy=".31em" text-anchor="start" transform="translate(8)">Metabolomics</text></g><g class="node" transform="rotate(66.52173913043478)translate(200)"><circle r="4.5"></circle><text dy=".31em" text-anchor="start" transform="translate(8)">Determine absolute metabolite concentrations</text></g><g class="node" transform="rotate(74.34782608695653)translate(200)"><circle r="4.5"></circle><text dy=".31em" text-anchor="start" transform="translate(8)">Check physiological ratios</text></g><g class="node" transform="rotate(82.17391304347825)translate(200)"><circle r="4.5"></circle><text dy=".31em" text-anchor="start" transform="translate(8)">Perform statistical and correlation analyses</text></g><g class="node" transform="rotate(90)translate(200)"><circle r="4.5"></circle><text dy=".31em" text-anchor="end" transform="rotate(180)translate(-8)">Remove outliers</text></g><g class="node" transform="rotate(97.82608695652175)translate(200)"><circle r="4.5"></circle><text dy=".31em" text-anchor="end" transform="rotate(180)translate(-8)">Determine statistically significant metabolite changes</text></g><g class="node" transform="rotate(105.65217391304347)translate(200)"><circle r="4.5"></circle><text dy=".31em" text-anchor="end" transform="rotate(180)translate(-8)">Determine data correlations</text></g><g class="node" transform="rotate(152.6086956521739)translate(100)"><circle r="4.5"></circle><text dy=".31em" text-anchor="end" transform="rotate(180)translate(-8)">Thermodynamics</text></g><g class="node" transform="rotate(121.30434782608697)translate(200)"><circle r="4.5"></circle><text dy=".31em" text-anchor="end" transform="rotate(180)translate(-8)">Calculate dG0_f values not available in the literature</text></g><g class="node" transform="rotate(129.1304347826087)translate(200)"><circle r="4.5"></circle><text dy=".31em" text-anchor="end" transform="rotate(180)translate(-8)">Adjust dG_f values to in vivo ionic strength, pH, and temperature</text></g><g class="node" transform="rotate(136.95652173913044)translate(200)"><circle r="4.5"></circle><text dy=".31em" text-anchor="end" transform="rotate(180)translate(-8)">Determine dG0_r values from dG_f values</text></g><g class="node" transform="rotate(144.7826086956522)translate(200)"><circle r="4.5"></circle><text dy=".31em" text-anchor="end" transform="rotate(180)translate(-8)">Determine dG_r values from dG0_r values and metabolomics data</text></g><g class="node" transform="rotate(152.6086956521739)translate(200)"><circle r="4.5"></circle><text dy=".31em" text-anchor="end" transform="rotate(180)translate(-8)">Check reaction and pathway thermodynamic feasibility</text></g><g class="node" transform="rotate(160.43478260869566)translate(200)"><circle r="4.5"></circle><text dy=".31em" text-anchor="end" transform="rotate(180)translate(-8)">Sample infeasible dG_r values</text></g><g class="node" transform="rotate(168.26086956521738)translate(200)"><circle r="4.5"></circle><text dy=".31em" text-anchor="end" transform="rotate(180)translate(-8)">Sample thermodynamically feasible fluxes</text></g><g class="node" transform="rotate(176.08695652173913)translate(200)"><circle r="4.5"></circle><text dy=".31em" text-anchor="end" transform="rotate(180)translate(-8)">Sample missing metabolite concentrations</text></g><g class="node" transform="rotate(183.91304347826087)translate(200)"><circle r="4.5"></circle><text dy=".31em" text-anchor="end" transform="rotate(180)translate(-8)">Determine and compare thermodynamic disequilibriums</text></g><g class="node" transform="rotate(207.39130434782606)translate(100)"><circle r="4.5"></circle><text dy=".31em" text-anchor="end" transform="rotate(180)translate(-8)">Expression/proteomics</text></g><g class="node" transform="rotate(199.56521739130437)translate(200)"><circle r="4.5"></circle><text dy=".31em" text-anchor="end" transform="rotate(180)translate(-8)">Expand the model to explicitly include proteins and enzymes</text></g><g class="node" transform="rotate(207.39130434782606)translate(200)"><circle r="4.5"></circle><text dy=".31em" text-anchor="end" transform="rotate(180)translate(-8)">Estimate enzyme levels based on expression and/or proteomics data</text></g><g class="node" transform="rotate(215.2173913043478)translate(200)"><circle r="4.5"></circle><text dy=".31em" text-anchor="end" transform="rotate(180)translate(-8)">Sample thermodynamically valid enzyme levels that are missing</text></g><g class="node" transform="rotate(246.5217391304348)translate(100)"><circle r="4.5"></circle><text dy=".31em" text-anchor="end" transform="rotate(180)translate(-8)">Kinetics</text></g><g class="node" transform="rotate(230.8695652173913)translate(200)"><circle r="4.5"></circle><text dy=".31em" text-anchor="end" transform="rotate(180)translate(-8)">Sample PERCs</text></g><g class="node" transform="rotate(238.69565217391306)translate(200)"><circle r="4.5"></circle><text dy=".31em" text-anchor="end" transform="rotate(180)translate(-8)">Check ensemble model/data combination stability</text></g><g class="node" transform="rotate(246.5217391304348)translate(200)"><circle r="4.5"></circle><text dy=".31em" text-anchor="end" transform="rotate(180)translate(-8)">Perform time-scale decomposition</text></g><g class="node" transform="rotate(254.3478260869565)translate(200)"><circle r="4.5"></circle><text dy=".31em" text-anchor="end" transform="rotate(180)translate(-8)">Determine aggregate pools</text></g><g class="node" transform="rotate(262.17391304347825)translate(200)"><circle r="4.5"></circle><text dy=".31em" text-anchor="end" transform="rotate(180)translate(-8)">Abstract to a functional operating diagram</text></g><g class="node" transform="rotate(262.17391304347825)translate(100)"><circle r="4.5"></circle><text dy=".31em" text-anchor="end" transform="rotate(180)translate(-8)">Functional operating diagram</text></g></g></svg>